<svg width="512" height="512" viewBox="0 0 512 512" fill="none" xmlns="http://www.w3.org/2000/svg">
<path d="M396.626 320.13C396.626 320.13 396.755 320.49 396.165 321.337C395.846 336.904 396.117 351.624 396.388 366.344C397.067 394.039 377.542 420.41 349.315 426.302C333.586 429.585 318.195 431.82 302.329 431.256C281.177 430.505 260.76 426.397 244.042 412.509C235.997 405.826 230.594 396.656 229.246 385.715C228.957 383.369 228.088 381.094 228.457 378.051C246.396 377.385 263.364 377.454 280.332 377.523C283.5 390.574 293.136 394.586 305.145 393.259C309.986 392.724 314.951 391.809 319.713 392.352C331.664 393.712 337.646 385.565 342.37 377.424C349.091 365.842 349.556 352.667 347.609 338.006C338.923 350.096 327.619 356.174 314.405 358.874C310.284 359.717 306.069 360.51 301.886 360.564C288.124 360.743 274.465 359.201 262.535 351.894C250.768 344.686 241.274 335.101 234.716 322.484C222.162 298.329 221.744 272.14 224.237 246.566C226.638 221.938 238.277 199.436 259.269 185.294C275.798 174.161 295.094 170.782 315.614 177.415C326.583 180.961 336.176 185.486 344.432 194.831C346.047 197.866 347.373 199.699 348.698 201.533C349.464 201.356 350.23 201.18 350.996 201.003C351.382 194.068 351.769 187.132 353.021 180.18C361.606 180.156 369.326 180.091 377.045 180.15C396.969 180.301 394.608 177.965 394.738 198.068C394.804 208.303 394.75 218.539 394.75 228.774C395.756 228.997 396.762 229.221 397.768 229.444C399.283 227.145 400.798 224.846 402.313 222.548C402.292 221.97 402.533 221.54 404.013 221.099C405.941 220.273 406.891 219.604 407.841 218.935C407.832 218.328 408.088 217.868 409.685 217.399C413.032 215.118 415.303 212.993 417.574 210.867C417.574 210.867 417.684 210.298 418.52 210.574C420.631 210.021 421.906 209.192 423.181 208.363C433.339 198.277 444.181 188.78 453.488 177.961C466.02 163.395 464.397 139.673 450.902 127.535C441.019 118.647 428.479 118.267 417.324 122.078C405.718 126.043 398.659 135.832 398.478 149.24C398.431 152.792 397.294 156.33 395.824 160.962C380.528 162.049 366.066 162.049 351.706 162.049C350.701 159.399 349.668 156.674 348.635 153.949C352.046 138.733 353.755 123.092 362.249 109.316C371.739 93.9246 384.929 85.0372 403.032 83.3665C413.94 82.3597 424.838 79.77 435.692 80.0164C449.86 80.3381 463.55 84.149 476.154 91.2114C495.426 102.01 504.859 119.354 509.765 140.078C515.486 164.247 508.94 186.588 494.511 204.659C483.584 218.346 466.895 227.428 452.792 238.588C439.101 249.423 425.426 260.278 411.819 271.22C411.374 271.578 411.763 272.973 411.763 274.66C444.878 274.66 477.837 274.66 512 274.66C512 288.892 512 302.387 511.01 316.775C475.187 317.686 440.354 317.648 405.521 317.83C402.552 317.845 399.591 319.328 396.626 320.13ZM332.59 224.902C316.873 210.878 292.929 216.633 283.616 231.934C271.091 252.512 269.552 274.762 279.416 297.321C285.008 310.107 299.601 321.834 309.786 321.387C322.097 320.846 339.216 306.797 344.776 295.477C351.262 282.273 348.344 268.908 348.196 255.557C348.063 243.526 342.174 233.936 332.59 224.902Z" fill="#ADB5BD"/>
<path d="M193.594 158.627C181.34 158.977 171.724 155.635 165.868 145.03C159.687 133.838 160.935 122.24 167.427 112.3C170.395 107.755 177.673 105.26 183.499 103.501C196.61 99.5406 212.17 105.97 217.801 116.682C222.926 126.432 220.175 145.878 211.215 152.918C206.827 156.366 200.087 156.819 193.594 158.627Z" fill="#ADB5BD"/>
<path d="M219.029 313.637C219.127 323.223 219.235 332.808 219.307 342.395C219.316 343.589 219.134 344.786 218.958 347.04C204.078 347.04 189.345 347.04 173.747 346.054C172.876 293.744 172.829 242.419 172.948 191.095C172.957 187.227 174.148 183.361 174.79 179.495C187.831 178.942 200.873 178.39 215.043 178.662C216.591 185.786 217.03 192.084 217.427 198.384C217.971 207.033 218.484 215.684 219.011 224.334C219.103 237.377 219.196 250.419 218.522 264.805C217.649 272.006 217.298 277.873 217.492 283.721C217.824 293.699 218.499 303.666 219.029 313.637Z" fill="#ADB5BD"/>
<path d="M48.2854 189.449C61.0789 174.708 78.2886 172.533 96.2044 173.049C110.061 173.448 123.382 176.744 134.432 185.472C152.26 199.555 164.236 217.141 167.654 240.423C170.458 259.527 169.565 278.105 163.6 296.252C154.361 324.357 133.969 339.734 105.559 346.052C87.7284 350.017 71.4261 346.329 55.7461 338.327C52.0597 336.446 49.2125 332.92 45.1018 329.399C44.9069 331.625 44.4701 333.251 44.6799 334.789C45.6991 342.261 42.4666 344.57 35.1688 344.212C24.0439 343.667 12.8736 344.047 0.861384 343.048C0.000317051 333.699 -0.00980943 325.337 0.00208282 316.975C0.0985694 249.154 0.199178 181.333 1.14958 113.484C16.1251 113.515 30.2495 113.574 44.4302 114.489C44.5259 122.701 44.5915 130.057 44.5995 137.413C44.6171 153.658 44.5334 169.904 44.7644 186.146C44.7804 187.264 42.0989 193.878 48.2854 189.449ZM120.351 274.847C124.172 258.154 121.622 242.792 111.584 228.603C99.8399 212.003 72.7316 212.002 60.6305 222.967C43.4692 238.516 40.9292 275.017 55.714 292.201C68.2991 306.828 78.9684 309.696 97.1036 302.348C109.821 297.194 114.842 287.214 120.351 274.847Z" fill="#ADB5BD"/>
</svg>
