<svg width="515" height="515" viewBox="0 0 515 515" fill="none" xmlns="http://www.w3.org/2000/svg">
<path d="M214.876 65.8767C127.561 84.0002 64 164.261 64 256.82C64 315.074 83.2608 359.735 123.709 397.924C167.366 439.349 203.32 451 284.215 451H350.986L372.173 415.4C383.729 395.982 393.36 377.859 394.002 374.623C394.002 372.034 364.469 370.092 328.515 370.092C253.398 369.444 219.371 363.619 195.616 345.496C131.413 298.245 134.623 210.217 200.752 164.908C226.433 147.432 275.227 144.843 303.476 159.73C322.737 169.439 355.48 205.039 355.48 215.395C355.48 218.632 329.799 221.221 298.34 221.221C254.682 221.221 238.631 223.81 230.927 231.577C219.371 243.228 218.086 261.998 227.075 280.122C233.495 291.773 241.841 292.42 339.43 292.42C459.489 292.42 456.92 293.714 448.574 235.46C435.092 141.607 365.753 72.9967 275.227 63.9349C257.892 61.9932 230.285 63.2877 214.876 65.8767Z" fill="#ADB5BD"/>
</svg>
