<svg width="72" height="72" viewBox="0 0 72 72" fill="none" xmlns="http://www.w3.org/2000/svg">
<g id="icons-collection" clip-path="url(#clip0_185_573)">
<g id="Group">
<path id="Vector" d="M55.125 0H16.875C7.55519 0 0 7.55519 0 16.875V55.125C0 64.4448 7.55519 72 16.875 72H55.125C64.4448 72 72 64.4448 72 55.125V16.875C72 7.55519 64.4448 0 55.125 0Z" fill="#F8F9FA"/>
<path id="Vector_2" d="M64.125 51.451C63.3062 51.7611 62.4023 51.7605 61.5839 51.4493C60.7656 51.1381 60.0896 50.5379 59.6838 49.7621C57.1348 45.9464 54.3201 42.3028 51.6147 38.581L50.4416 37.0173C47.2202 41.3333 43.9987 45.4773 41.0588 49.7779C40.6759 50.5193 40.0365 51.0963 39.2597 51.4013C38.483 51.7062 37.6218 51.7184 36.8367 51.4356L48.9248 35.219L37.681 20.5658C38.4904 20.2736 39.3758 20.2695 40.1878 20.5544C40.9998 20.8393 41.6887 21.3957 42.138 22.1296C44.7494 25.9456 47.6426 29.5892 50.5198 33.4519C53.413 29.6204 56.2747 25.9611 58.9489 22.1766C59.3339 21.4471 59.9737 20.8848 60.7465 20.5964C61.5192 20.3081 62.371 20.3139 63.1398 20.6128L58.7767 26.399C56.8221 28.9792 54.8986 31.5751 52.8657 34.0928C52.7018 34.2395 52.5707 34.419 52.4809 34.6198C52.3911 34.8205 52.3447 35.038 52.3447 35.2579C52.3447 35.4778 52.3911 35.6953 52.4809 35.8961C52.5707 36.0968 52.7018 36.2764 52.8657 36.423C56.6032 41.3803 60.3093 46.3531 64.125 51.451ZM7.875 35.0156C8.2035 33.4519 8.40656 31.7472 8.86022 30.1522C11.5656 20.5349 22.5903 16.5313 30.1748 22.4896C34.616 25.9771 35.7263 30.9187 35.5075 36.4857H10.4867C10.08 46.4316 17.2578 52.4365 26.4372 49.3715C27.9263 48.8388 29.2592 47.9437 30.3158 46.7669C31.3724 45.5902 32.1193 44.1689 32.4892 42.6313C32.974 41.0676 33.7559 40.8018 35.2415 41.2552C34.9969 43.159 34.3238 44.9825 33.2729 46.5887C32.222 48.1949 30.8206 49.542 29.1741 50.5285C26.4537 52.0163 23.3326 52.6057 20.257 52.2125C17.1814 51.8193 14.309 50.4636 12.0504 48.3393C9.81599 45.8269 8.46495 42.6525 8.2035 39.3005C8.2035 38.7689 8.00016 38.2371 7.89075 37.7367C7.8804 36.8297 7.87515 35.9227 7.875 35.0156ZM10.5179 34.3432H33.1462C33.0052 27.1342 28.4546 22.0205 22.3872 21.9738C15.6316 21.8798 10.7994 26.8838 10.5022 34.3119L10.5179 34.3432Z" fill="#0E1F19"/>
</g>
</g>
<defs>
<clipPath id="clip0_185_573">
<rect width="72" height="72" fill="white"/>
</clipPath>
</defs>
</svg>
