<svg width="512" height="512" viewBox="0 0 512 512" fill="none" xmlns="http://www.w3.org/2000/svg">
<path d="M205.771 292.635C205.771 302.234 205.771 311.267 205.771 320.634C196.036 320.634 186.517 320.634 176.506 320.634C176.384 319.432 176.243 318.056 176.053 316.194C144.542 326.843 118.734 319.653 104.696 288.912C93.7686 264.981 101.286 243.231 118.23 228.47C135.626 213.316 159.089 212.807 175.944 221.353C176.16 219.469 176.357 217.74 176.581 215.787C186.1 215.787 195.647 215.787 205.771 215.787C205.771 241.276 205.771 266.672 205.771 292.635ZM167.302 285.435C173.385 280.565 177.504 273.527 175.911 266.523C172.823 252.938 164.755 244.068 147.953 246.155C142.341 246.852 132.081 256.021 131.014 261.418C128.663 273.318 132.411 282.385 143.306 288.196C147.238 290.293 152.373 291.113 156.867 290.865C160.387 290.67 163.766 287.93 167.302 285.435Z" fill="#ADB5BD"/>
<path d="M27.9193 317.38C28.4574 321.171 26.3659 321.012 24.1501 320.995C16.2335 320.933 8.31608 320.97 0 320.97C0 277.994 0 235.117 0 192C9.15881 192 18.296 192 27.8365 192C27.8365 200.963 27.8365 209.763 27.8365 218.304C33.4236 217.732 38.6679 217.468 43.8133 216.611C55.1035 214.729 65.1684 218.347 74.1684 224.278C81.9146 229.382 88.15 236.44 91.2682 245.578C92.6041 249.493 94.5359 253.508 94.5997 257.503C94.9339 278.425 94.7559 299.355 94.7559 320.625C85.0369 320.625 75.5199 320.625 65.565 320.625C65.4842 319.172 65.3174 317.551 65.3156 315.93C65.2967 298.757 65.4033 281.583 65.2579 264.411C65.195 256.97 61.6463 251.022 55.2665 247.445C47.7906 243.254 36.008 246.275 31.6707 253.615C29.5569 257.191 28.1791 261.737 28.0832 265.881C27.6904 282.856 27.9195 299.846 27.9193 317.38Z" fill="#ADB5BD"/>
<path d="M343.585 216.398C360.284 208.913 375.218 212.376 389.428 221.916C401.425 229.969 406.721 241.707 408.583 255.572C410.469 269.61 406.143 282.17 397.489 292.443C390.558 300.67 381.039 305.954 369.566 307.612C360.483 308.924 352.082 307.83 343.167 305.143C343.167 310.217 343.167 315.195 343.167 320.571C333.245 320.571 323.721 320.571 313.911 320.571C313.855 320.447 313.457 319.969 313.445 319.482C313.026 301.828 312.314 284.173 312.364 266.52C312.401 253.556 314.452 240.754 323.65 230.722C329.098 224.78 334.496 218.28 343.585 216.398ZM346.15 270.463C348.917 277.247 355.459 279.53 361.289 279.804C373.298 280.369 382.383 265.786 378.009 254.526C373.661 243.335 363.529 239.65 352.063 245.003C345.361 248.131 339.416 260.358 346.15 270.463Z" fill="#ADB5BD"/>
<path d="M230.53 221.968C239.726 216.583 248.952 211.851 259.45 212.28C277.172 213.005 295.395 223.256 303.525 241.549C312.352 261.413 306.216 283.262 291.724 296.274C281.027 305.88 267.704 310.94 252.562 307.453C248.491 306.516 244.311 306.055 239.822 305.317C239.822 310.307 239.822 315.344 239.822 320.672C230.315 320.672 221.174 320.672 211.435 320.672C211.435 313.003 211.433 305.333 211.435 297.663C211.438 287.469 211.864 277.254 211.356 267.086C210.451 248.985 216.287 233.982 230.53 221.968ZM244.201 270.47C249.805 279.649 259.413 281.809 269.327 276.119C277.341 271.52 280.392 258.609 275.353 250.617C270.217 242.472 258.196 240.13 248.757 245.684C241.732 249.817 238.091 260.581 244.201 270.47Z" fill="#ADB5BD"/>
<path d="M436.917 300.574C427.449 294.754 420.984 286.878 417.64 276.653C416.516 273.217 415.497 269.56 415.448 265.99C415.219 249.402 415.346 232.809 415.346 215.891C424.72 215.891 433.863 215.891 443.661 215.891C443.661 230.072 443.975 244.354 443.535 258.612C443.298 266.31 449.781 276.481 458.701 278.63C467.506 280.752 476.675 276.605 479.983 265.926C484.029 252.859 481.371 239.533 482.147 226.35C482.345 222.986 482.177 219.6 482.177 215.565C491.001 215.565 499.611 215.411 508.202 215.742C509.391 215.788 511.457 218.214 511.48 219.566C511.72 233.911 512.565 248.339 511.396 262.592C509.874 281.158 500.485 295.379 483.464 303.908C481.744 304.77 479.754 305.094 477.659 305.738C477.659 310.552 477.659 315.427 477.659 320.634C467.913 320.634 458.392 320.634 448.78 320.634C448.654 320.453 448.227 320.108 448.28 319.871C450.456 310.128 446.413 303.947 436.917 300.574Z" fill="#ADB5BD"/>
</svg>
