<svg width="48" height="64" viewBox="0 0 48 64" fill="none" xmlns="http://www.w3.org/2000/svg">
<g clip-path="url(#clip0_316_405)">
<path d="M15.2737 49.4748C15.2737 49.4748 12.8325 50.8944 17.0112 51.3748C22.0736 51.9523 24.6608 51.8696 30.2397 50.8136C30.2397 50.8136 31.7066 51.7333 33.7548 52.5299C21.2487 57.8899 5.45066 52.2194 15.2737 49.4748ZM13.7455 42.4803C13.7455 42.4803 11.0074 44.5072 15.1892 44.9397C20.597 45.4975 24.8676 45.5432 32.2576 44.1202C32.2576 44.1202 33.2797 45.1564 34.887 45.7232C19.7661 50.1447 2.92433 46.0719 13.7455 42.4803Z" fill="#F8F9FA"/>
<path d="M26.6287 30.6155C29.7103 34.1632 25.8191 37.3558 25.8191 37.3558C25.8191 37.3558 33.6435 33.3166 30.0501 28.2584C26.694 23.5416 24.1201 21.1977 38.0534 13.117C38.0534 13.117 16.1828 18.5794 26.6287 30.6155Z" fill="#F8F9FA"/>
<path d="M43.1691 54.6482C43.1691 54.6482 44.9757 56.1367 41.1794 57.2883C33.9607 59.4752 11.1342 60.1356 4.79299 57.3754C2.51359 56.384 6.78827 55.0078 8.13282 54.7189C9.53509 54.4148 10.3366 54.4716 10.3366 54.4716C7.80154 52.6857 -6.04872 57.9781 3.30138 59.4935C28.8002 63.6287 49.7831 57.6316 43.1691 54.6482ZM16.4475 35.2333C16.4475 35.2333 4.83664 37.9912 12.3359 38.9925C15.5023 39.4164 21.8144 39.3206 27.6941 38.8278C32.4992 38.4227 37.3242 37.5608 37.3242 37.5608C37.3242 37.5608 35.6299 38.2864 34.4041 39.1234C22.6133 42.2245 -0.164425 40.7819 6.39299 37.6098C11.9386 34.9292 16.4475 35.2333 16.4475 35.2333ZM37.2763 46.8757C49.2624 40.6474 43.7205 34.6621 39.8524 35.4686C38.9042 35.6657 38.4816 35.8367 38.4816 35.8367C38.4816 35.8367 38.8336 35.2854 39.5058 35.0468C47.158 32.3564 53.0432 42.9815 37.0355 47.1896C37.0355 47.1898 37.221 47.0241 37.2763 46.8757Z" fill="#F8F9FA"/>
<path d="M30.0504 0.0686359C30.0504 0.0686359 36.6885 6.7091 23.7546 16.9197C13.383 25.1106 21.3895 29.7807 23.7503 35.1166C17.6962 29.6544 13.2532 24.8459 16.234 20.3707C20.6088 13.8011 32.7286 10.6162 30.0504 0.0686359Z" fill="#F8F9FA"/>
<path d="M17.6257 63.7531C29.1307 64.4896 46.7979 63.3445 47.2163 57.9006C47.2163 57.9006 46.412 59.9645 37.708 61.6033C27.8883 63.4512 15.7771 63.2355 8.59375 62.0511C8.59393 62.0511 10.0641 63.2683 17.6257 63.7531Z" fill="#F8F9FA"/>
</g>
<defs>
<clipPath id="clip0_316_405">
<rect width="47.36" height="64" fill="white"/>
</clipPath>
</defs>
</svg>
