<svg width="80" height="80" viewBox="0 0 80 80" fill="none" xmlns="http://www.w3.org/2000/svg">
<g clip-path="url(#clip0_185_579)">
<path d="M4 4H76V76H4V4Z" fill="#F8F9FA"/>
<path d="M22.9314 64.1683L28.4411 60.8338C29.5042 62.7185 30.4712 64.3132 32.7907 64.3132C35.0139 64.3132 36.416 63.4435 36.416 60.0607V37.055H43.182V60.1563C43.182 67.1642 39.0741 70.3541 33.0806 70.3541C27.668 70.3541 24.5261 67.5509 22.9312 64.1677M46.8571 63.4432L52.3662 60.2536C53.8166 62.622 55.7016 64.3618 59.0361 64.3618C61.8398 64.3618 63.6275 62.9601 63.6275 61.0267C63.6275 58.707 61.7909 57.8852 58.6977 56.5324L57.0066 55.8067C52.1249 53.7292 48.8869 51.1192 48.8869 45.6095C48.8869 40.5346 52.7532 36.668 58.7947 36.668C63.0962 36.668 66.1894 38.1665 68.4124 42.0812L63.144 45.4646C61.9838 43.3865 60.7278 42.5649 58.7945 42.5649C56.8128 42.5649 55.5562 43.8216 55.5562 45.4646C55.5562 47.4944 56.8128 48.3165 59.7125 49.5731L61.4039 50.2979C67.1555 52.7631 70.3935 55.276 70.3935 60.9303C70.3935 67.0205 65.6089 70.355 59.1809 70.355C52.8981 70.355 48.8382 67.3585 46.8568 63.4435" fill="#0E1F19"/>
</g>
<defs>
<clipPath id="clip0_185_579">
<rect width="72" height="72" fill="white" transform="translate(4 4)"/>
</clipPath>
</defs>
</svg>
