<svg width="156" height="30" viewBox="0 0 156 30" fill="none" xmlns="http://www.w3.org/2000/svg">
<path d="M5.04 19H9.42V22H1.12V7.9H5.04V19ZM21.6642 16.26C21.6642 16.5667 21.6442 16.8733 21.6042 17.18H14.1842C14.2242 17.7933 14.3909 18.2533 14.6842 18.56C14.9909 18.8533 15.3776 19 15.8442 19C16.4976 19 16.9642 18.7067 17.2442 18.12H21.4242C21.2509 18.8933 20.9109 19.5867 20.4042 20.2C19.9109 20.8 19.2842 21.2733 18.5242 21.62C17.7642 21.9667 16.9242 22.14 16.0042 22.14C14.8976 22.14 13.9109 21.9067 13.0442 21.44C12.1909 20.9733 11.5176 20.3067 11.0242 19.44C10.5442 18.5733 10.3042 17.5533 10.3042 16.38C10.3042 15.2067 10.5442 14.1933 11.0242 13.34C11.5042 12.4733 12.1709 11.8067 13.0242 11.34C13.8909 10.8733 14.8842 10.64 16.0042 10.64C17.1109 10.64 18.0909 10.8667 18.9442 11.32C19.7976 11.7733 20.4642 12.4267 20.9442 13.28C21.4242 14.12 21.6642 15.1133 21.6642 16.26ZM17.6642 15.28C17.6642 14.8 17.5042 14.4267 17.1842 14.16C16.8642 13.88 16.4642 13.74 15.9842 13.74C15.5042 13.74 15.1109 13.8733 14.8042 14.14C14.4976 14.3933 14.2976 14.7733 14.2042 15.28H17.6642ZM28.4884 22.14C27.3684 22.14 26.3618 21.9067 25.4684 21.44C24.5884 20.9733 23.8951 20.3067 23.3884 19.44C22.8818 18.5733 22.6284 17.5533 22.6284 16.38C22.6284 15.22 22.8818 14.2067 23.3884 13.34C23.9084 12.4733 24.6084 11.8067 25.4884 11.34C26.3818 10.8733 27.3884 10.64 28.5084 10.64C29.6284 10.64 30.6284 10.8733 31.5084 11.34C32.4018 11.8067 33.1018 12.4733 33.6084 13.34C34.1284 14.2067 34.3884 15.22 34.3884 16.38C34.3884 17.54 34.1284 18.56 33.6084 19.44C33.1018 20.3067 32.4018 20.9733 31.5084 21.44C30.6151 21.9067 29.6084 22.14 28.4884 22.14ZM28.4884 18.74C29.0351 18.74 29.4884 18.54 29.8484 18.14C30.2218 17.7267 30.4084 17.14 30.4084 16.38C30.4084 15.62 30.2218 15.04 29.8484 14.64C29.4884 14.24 29.0418 14.04 28.5084 14.04C27.9751 14.04 27.5284 14.24 27.1684 14.64C26.8084 15.04 26.6284 15.62 26.6284 16.38C26.6284 17.1533 26.8018 17.74 27.1484 18.14C27.4951 18.54 27.9418 18.74 28.4884 18.74ZM43.3233 10.68C44.6166 10.68 45.6433 11.1133 46.4033 11.98C47.1633 12.8333 47.5433 13.9933 47.5433 15.46V22H43.6233V15.98C43.6233 15.34 43.4566 14.84 43.1233 14.48C42.7899 14.1067 42.3433 13.92 41.7833 13.92C41.1966 13.92 40.7366 14.1067 40.4033 14.48C40.0699 14.84 39.9033 15.34 39.9033 15.98V22H35.9833V10.78H39.9033V12.38C40.2499 11.8733 40.7166 11.4667 41.3033 11.16C41.8899 10.84 42.5633 10.68 43.3233 10.68ZM49.0542 16.38C49.0542 15.22 49.2609 14.2067 49.6742 13.34C50.1009 12.4733 50.6742 11.8067 51.3942 11.34C52.1276 10.8733 52.9409 10.64 53.8342 10.64C54.6076 10.64 55.2742 10.7933 55.8342 11.1C56.3942 11.4067 56.8276 11.82 57.1342 12.34V10.78H61.0542V22H57.1342V20.44C56.8276 20.96 56.3876 21.3733 55.8142 21.68C55.2542 21.9867 54.5942 22.14 53.8342 22.14C52.9409 22.14 52.1276 21.9067 51.3942 21.44C50.6742 20.9733 50.1009 20.3067 49.6742 19.44C49.2609 18.56 49.0542 17.54 49.0542 16.38ZM57.1342 16.38C57.1342 15.66 56.9342 15.0933 56.5342 14.68C56.1476 14.2667 55.6676 14.06 55.0942 14.06C54.5076 14.06 54.0209 14.2667 53.6342 14.68C53.2476 15.08 53.0542 15.6467 53.0542 16.38C53.0542 17.1 53.2476 17.6733 53.6342 18.1C54.0209 18.5133 54.5076 18.72 55.0942 18.72C55.6676 18.72 56.1476 18.5133 56.5342 18.1C56.9342 17.6867 57.1342 17.1133 57.1342 16.38ZM67.208 12.76C67.648 12.12 68.1813 11.6133 68.808 11.24C69.4346 10.8667 70.108 10.68 70.828 10.68V14.86H69.728C68.8746 14.86 68.2413 15.0267 67.828 15.36C67.4146 15.6933 67.208 16.2733 67.208 17.1V22H63.288V10.78H67.208V12.76ZM71.5933 16.38C71.5933 15.22 71.7999 14.2067 72.2133 13.34C72.6399 12.4733 73.2199 11.8067 73.9533 11.34C74.6866 10.8733 75.4999 10.64 76.3933 10.64C77.1133 10.64 77.7533 10.7933 78.3133 11.1C78.8866 11.3933 79.3333 11.8 79.6533 12.32V7.2H83.5933V22H79.6533V20.44C79.3466 20.96 78.9133 21.3733 78.3533 21.68C77.7933 21.9867 77.1333 22.14 76.3733 22.14C75.4799 22.14 74.6666 21.9067 73.9333 21.44C73.2133 20.9733 72.6399 20.3067 72.2133 19.44C71.7999 18.56 71.5933 17.54 71.5933 16.38ZM79.6733 16.38C79.6733 15.66 79.4733 15.0933 79.0733 14.68C78.6866 14.2667 78.2066 14.06 77.6333 14.06C77.0466 14.06 76.5599 14.2667 76.1733 14.68C75.7866 15.08 75.5933 15.6467 75.5933 16.38C75.5933 17.1 75.7866 17.6733 76.1733 18.1C76.5599 18.5133 77.0466 18.72 77.6333 18.72C78.2066 18.72 78.6866 18.5133 79.0733 18.1C79.4733 17.6867 79.6733 17.1133 79.6733 16.38ZM91.047 22.14C89.927 22.14 88.9204 21.9067 88.027 21.44C87.147 20.9733 86.4537 20.3067 85.947 19.44C85.4404 18.5733 85.187 17.5533 85.187 16.38C85.187 15.22 85.4404 14.2067 85.947 13.34C86.467 12.4733 87.167 11.8067 88.047 11.34C88.9404 10.8733 89.947 10.64 91.067 10.64C92.187 10.64 93.187 10.8733 94.067 11.34C94.9604 11.8067 95.6604 12.4733 96.167 13.34C96.687 14.2067 96.947 15.22 96.947 16.38C96.947 17.54 96.687 18.56 96.167 19.44C95.6604 20.3067 94.9604 20.9733 94.067 21.44C93.1737 21.9067 92.167 22.14 91.047 22.14ZM91.047 18.74C91.5937 18.74 92.047 18.54 92.407 18.14C92.7804 17.7267 92.967 17.14 92.967 16.38C92.967 15.62 92.7804 15.04 92.407 14.64C92.047 14.24 91.6004 14.04 91.067 14.04C90.5337 14.04 90.087 14.24 89.727 14.64C89.367 15.04 89.187 15.62 89.187 16.38C89.187 17.1533 89.3604 17.74 89.707 18.14C90.0537 18.54 90.5004 18.74 91.047 18.74ZM109.51 22L106.71 16.8H106.29V22H102.37V7.9H108.55C109.683 7.9 110.643 8.1 111.43 8.5C112.217 8.88667 112.81 9.42667 113.21 10.12C113.61 10.8 113.81 11.5667 113.81 12.42C113.81 13.38 113.543 14.2267 113.01 14.96C112.49 15.68 111.723 16.1933 110.71 16.5L113.89 22H109.51ZM106.29 14.12H108.23C108.763 14.12 109.163 13.9933 109.43 13.74C109.697 13.4867 109.83 13.12 109.83 12.64C109.83 12.1867 109.69 11.8333 109.41 11.58C109.143 11.3133 108.75 11.18 108.23 11.18H106.29V14.12ZM120.813 22.14C119.693 22.14 118.686 21.9067 117.793 21.44C116.913 20.9733 116.219 20.3067 115.713 19.44C115.206 18.5733 114.953 17.5533 114.953 16.38C114.953 15.22 115.206 14.2067 115.713 13.34C116.233 12.4733 116.933 11.8067 117.813 11.34C118.706 10.8733 119.713 10.64 120.833 10.64C121.953 10.64 122.953 10.8733 123.833 11.34C124.726 11.8067 125.426 12.4733 125.933 13.34C126.453 14.2067 126.713 15.22 126.713 16.38C126.713 17.54 126.453 18.56 125.933 19.44C125.426 20.3067 124.726 20.9733 123.833 21.44C122.939 21.9067 121.933 22.14 120.813 22.14ZM120.813 18.74C121.359 18.74 121.813 18.54 122.173 18.14C122.546 17.7267 122.733 17.14 122.733 16.38C122.733 15.62 122.546 15.04 122.173 14.64C121.813 14.24 121.366 14.04 120.833 14.04C120.299 14.04 119.853 14.24 119.493 14.64C119.133 15.04 118.953 15.62 118.953 16.38C118.953 17.1533 119.126 17.74 119.473 18.14C119.819 18.54 120.266 18.74 120.813 18.74ZM133.088 22.14C132.074 22.14 131.168 21.9733 130.368 21.64C129.581 21.2933 128.954 20.8267 128.488 20.24C128.034 19.64 127.781 18.9667 127.728 18.22H131.528C131.581 18.58 131.748 18.86 132.028 19.06C132.308 19.26 132.654 19.36 133.067 19.36C133.388 19.36 133.641 19.2933 133.828 19.16C134.014 19.0267 134.108 18.8533 134.108 18.64C134.108 18.36 133.954 18.1533 133.648 18.02C133.341 17.8867 132.834 17.74 132.128 17.58C131.328 17.42 130.661 17.24 130.127 17.04C129.594 16.84 129.128 16.5133 128.728 16.06C128.341 15.6067 128.148 14.9933 128.148 14.22C128.148 13.5533 128.328 12.9533 128.688 12.42C129.048 11.8733 129.574 11.44 130.268 11.12C130.974 10.8 131.821 10.64 132.808 10.64C134.274 10.64 135.428 11 136.268 11.72C137.108 12.44 137.594 13.3867 137.728 14.56H134.188C134.121 14.2 133.961 13.9267 133.708 13.74C133.468 13.54 133.141 13.44 132.728 13.44C132.408 13.44 132.161 13.5 131.988 13.62C131.828 13.74 131.748 13.9067 131.748 14.12C131.748 14.3867 131.901 14.5933 132.208 14.74C132.514 14.8733 133.008 15.0133 133.688 15.16C134.501 15.3333 135.174 15.5267 135.708 15.74C136.254 15.9533 136.728 16.3 137.128 16.78C137.541 17.2467 137.747 17.8867 137.747 18.7C137.747 19.3533 137.554 19.94 137.168 20.46C136.794 20.98 136.254 21.3933 135.548 21.7C134.854 21.9933 134.034 22.14 133.088 22.14ZM144.455 22.14C143.441 22.14 142.535 21.9733 141.735 21.64C140.948 21.2933 140.321 20.8267 139.855 20.24C139.401 19.64 139.148 18.9667 139.095 18.22H142.895C142.948 18.58 143.115 18.86 143.395 19.06C143.675 19.26 144.021 19.36 144.435 19.36C144.755 19.36 145.008 19.2933 145.195 19.16C145.381 19.0267 145.475 18.8533 145.475 18.64C145.475 18.36 145.321 18.1533 145.015 18.02C144.708 17.8867 144.201 17.74 143.495 17.58C142.695 17.42 142.028 17.24 141.495 17.04C140.961 16.84 140.495 16.5133 140.095 16.06C139.708 15.6067 139.515 14.9933 139.515 14.22C139.515 13.5533 139.695 12.9533 140.055 12.42C140.415 11.8733 140.941 11.44 141.635 11.12C142.341 10.8 143.188 10.64 144.175 10.64C145.641 10.64 146.795 11 147.635 11.72C148.475 12.44 148.961 13.3867 149.095 14.56H145.555C145.488 14.2 145.328 13.9267 145.075 13.74C144.835 13.54 144.508 13.44 144.095 13.44C143.775 13.44 143.528 13.5 143.355 13.62C143.195 13.74 143.115 13.9067 143.115 14.12C143.115 14.3867 143.268 14.5933 143.575 14.74C143.881 14.8733 144.375 15.0133 145.055 15.16C145.868 15.3333 146.541 15.5267 147.075 15.74C147.621 15.9533 148.095 16.3 148.495 16.78C148.908 17.2467 149.115 17.8867 149.115 18.7C149.115 19.3533 148.921 19.94 148.535 20.46C148.161 20.98 147.621 21.3933 146.915 21.7C146.221 21.9933 145.401 22.14 144.455 22.14ZM153.022 9.74C152.329 9.74 151.769 9.55333 151.342 9.18C150.929 8.79333 150.722 8.31333 150.722 7.74C150.722 7.15333 150.929 6.66667 151.342 6.28C151.769 5.89333 152.329 5.7 153.022 5.7C153.702 5.7 154.249 5.89333 154.662 6.28C155.089 6.66667 155.302 7.15333 155.302 7.74C155.302 8.31333 155.089 8.79333 154.662 9.18C154.249 9.55333 153.702 9.74 153.022 9.74ZM154.962 10.78V22H151.042V10.78H154.962Z" fill="#377D61"/>
</svg>
