<svg width="80" height="80" viewBox="0 0 80 80" fill="none" xmlns="http://www.w3.org/2000/svg">
<g clip-path="url(#clip0_185_1104)">
<path d="M55.5791 32.665C51.7871 15.925 42.8231 10.423 41.8601 8.32C41.0201 7.138 40.2701 5.458 39.6551 4C39.5471 5.485 39.4901 6.055 38.0861 7.552C35.9171 9.25 24.7721 18.598 23.8661 37.612C23.0201 55.348 36.6761 65.917 38.5301 67.264L38.7401 67.414C39.1261 70.2693 39.4562 73.1318 39.7301 76H41.1731C41.5148 72.9044 42.0256 69.8298 42.7031 66.79C43.9541 65.902 44.5151 65.401 45.2531 64.711C48.7479 61.4779 51.5254 57.5473 53.4059 53.1734C55.2864 48.7995 56.2281 44.0797 56.1701 39.319C56.2001 36.877 55.8611 34.333 55.5791 32.665ZM39.5711 57.25C39.5711 57.25 39.5711 32.377 40.3961 32.38C41.0351 32.38 41.8661 64.465 41.8661 64.465C40.7231 64.33 39.5711 59.185 39.5711 57.25Z" fill="#F8F9FA"/>
</g>
<defs>
<clipPath id="clip0_185_1104">
<rect width="72" height="72" fill="white" transform="translate(4 4)"/>
</clipPath>
</defs>
</svg>
