<svg width="65" height="64" viewBox="0 0 65 64" fill="none" xmlns="http://www.w3.org/2000/svg">
<g clip-path="url(#clip0_316_401)">
<path fill-rule="evenodd" clip-rule="evenodd" d="M0.360352 32C0.361055 26.4785 1.79041 21.0512 4.50944 16.2457C7.22847 11.4401 11.1447 7.4199 15.8773 4.57582C20.6099 1.73175 25.9979 0.160611 31.5174 0.0151653C37.0369 -0.13028 42.5002 1.15491 47.376 3.7458C52.2519 6.33668 56.3744 10.1451 59.3427 14.8008C62.311 19.4564 64.0242 24.801 64.3157 30.3147C64.6072 35.8284 63.4671 41.3238 61.0062 46.2665C58.5453 51.2092 54.8473 55.4311 50.2718 58.5216L21.2926 17.9627C21.0295 17.5966 20.6572 17.3233 20.2292 17.182C19.8011 17.0407 19.3393 17.0386 18.91 17.176C18.4807 17.3134 18.1059 17.5833 17.8395 17.9469C17.5731 18.3105 17.4287 18.7492 17.427 19.2V51.2H21.6937V25.856L46.5684 60.6805C41.689 63.0983 36.2734 64.231 30.834 63.9712C25.3947 63.7115 20.1116 62.068 15.4849 59.1962C10.8581 56.3245 7.04074 52.3195 4.39408 47.5604C1.74743 42.8013 0.359046 37.4455 0.360352 32ZM43.027 42.6667V17.0667H47.2937V42.6667H43.027Z" fill="#F8F9FA"/>
</g>
<defs>
<clipPath id="clip0_316_401">
<rect width="64" height="64" fill="white" transform="translate(0.360352)"/>
</clipPath>
</defs>
</svg>
