<svg width="80" height="80" viewBox="0 0 80 80" fill="none" xmlns="http://www.w3.org/2000/svg">
<g clip-path="url(#clip0_185_556)">
<path fill-rule="evenodd" clip-rule="evenodd" d="M73.1017 23.2864L40.0508 4L7 23.2864V56.7136L12.1153 59.6983L22.5746 55.4678C23.9821 54.8978 25.1874 53.9207 26.0362 52.6616C26.885 51.4024 27.3386 49.9185 27.339 48.4V22.2034H32.4237V48.4C32.4234 50.9314 31.6672 53.405 30.2522 55.5039C28.8372 57.6029 26.8278 59.2316 24.4814 60.1814L17.6678 62.9373L40.0508 76L73.1017 56.7186V23.2864ZM37.5085 32.3729C37.5085 29.6758 38.5799 27.0891 40.487 25.182C42.3942 23.2748 44.9808 22.2034 47.678 22.2034H53.6119C58.7576 22.2034 62.9322 26.3729 62.9322 31.5237V32.3729H57.8475V31.5237C57.8475 30.9675 57.7379 30.4167 57.525 29.9028C57.3122 29.389 57.0002 28.922 56.6069 28.5287C56.2136 28.1354 55.7466 27.8234 55.2328 27.6106C54.7189 27.3977 54.1681 27.2881 53.6119 27.2881H47.678C46.3294 27.2881 45.0361 27.8238 44.0825 28.7774C43.1289 29.731 42.5932 31.0243 42.5932 32.3729C42.5932 33.7214 43.1289 35.0148 44.0825 35.9683C45.0361 36.9219 46.3294 37.4576 47.678 37.4576H52.7627C55.4598 37.4576 58.0465 38.5291 59.9536 40.4362C61.8608 42.3434 62.9322 44.93 62.9322 47.6271C62.9322 50.3242 61.8608 52.9109 59.9536 54.818C58.0465 56.7252 55.4598 57.7966 52.7627 57.7966H47.678C44.9808 57.7966 42.3942 56.7252 40.487 54.818C38.5799 52.9109 37.5085 50.3242 37.5085 47.6271H42.5932C42.5932 48.9757 43.1289 50.269 44.0825 51.2226C45.0361 52.1762 46.3294 52.7119 47.678 52.7119H52.7627C54.1113 52.7119 55.4046 52.1762 56.3582 51.2226C57.3117 50.269 57.8475 48.9757 57.8475 47.6271C57.8475 46.2786 57.3117 44.9852 56.3582 44.0317C55.4046 43.0781 54.1113 42.5424 52.7627 42.5424H47.678C44.9808 42.5424 42.3942 41.4709 40.487 39.5638C38.5799 37.6566 37.5085 35.07 37.5085 32.3729Z" fill="#F8F9FA"/>
</g>
<defs>
<clipPath id="clip0_185_556">
<rect width="72" height="72" fill="white" transform="translate(4 4)"/>
</clipPath>
</defs>
</svg>
