<svg width="80" height="80" viewBox="0 0 80 80" fill="none" xmlns="http://www.w3.org/2000/svg">
<path d="M57.472 0C54.2713 0.0299522 51.0887 0.482349 48.0065 1.34546L47.7883 1.41092C45.8476 1.07816 43.8843 0.894588 41.9155 0.861823C37.8682 0.792732 34.3882 1.74547 31.5882 3.33457C28.8245 2.40365 23.0936 0.800005 17.0535 1.12001C12.8462 1.34183 8.25712 2.58183 4.8571 6.06549C1.46435 9.54915 -0.328389 14.9383 0.0497949 22.2729C0.151614 24.2983 0.744344 27.5965 1.73344 31.8729C2.71527 36.1457 4.10437 41.1457 5.83165 45.7094C7.55893 50.273 9.45349 54.3785 12.4135 57.164C13.8899 58.5604 15.9226 59.7349 18.319 59.6367C20.0026 59.5713 21.5263 58.8549 22.839 57.7967C23.479 58.6149 24.1627 58.9713 24.7845 59.3022C25.5663 59.7167 26.33 60.0004 27.1191 60.1895C29.3042 60.7498 31.5802 60.8624 33.81 60.5204C34.7809 60.364 35.8027 60.0585 36.8209 59.6222C36.8573 60.7204 36.9009 61.7967 36.9482 62.8877C37.0864 66.3422 37.1773 69.5313 38.2464 72.3277C38.4173 72.7859 38.8864 75.1386 40.7446 77.215C42.5992 79.295 46.2355 80.5896 50.3737 79.7314C53.2938 79.1241 57.0101 78.0296 59.4756 74.6259C61.912 71.2586 63.0138 66.4295 63.232 58.5931C63.2865 58.1713 63.352 57.8113 63.4211 57.4731L64.0029 57.524H64.0684C67.1848 57.6622 70.5666 57.2331 73.3921 55.9603C75.8939 54.8331 77.7848 53.6985 79.163 51.6803C79.5085 51.1821 79.8867 50.5785 79.9885 49.5348C80.0903 48.4985 79.4794 46.8694 78.4576 46.1203C76.4103 44.6148 75.1266 45.1857 73.7484 45.4657C72.3908 45.7566 71.0139 45.9179 69.6175 45.9494C73.5921 39.4621 76.4394 32.5675 78.0648 26.4656C79.0248 22.8656 79.5667 19.5456 79.6103 16.6437C79.6539 13.7419 79.4103 11.171 77.6175 8.94551C72.0139 2.00001 64.1338 0.0800003 58.0392 0.0145454C57.8502 0.00969684 57.6611 0.00848498 57.472 0.0109092V0ZM57.312 2.13456C63.0756 2.08001 70.443 3.65093 75.7303 10.2073C76.9194 11.6801 77.2721 13.8328 77.2321 16.4874C77.1885 19.1383 76.683 22.3092 75.7594 25.7856C73.9666 32.5202 70.5775 40.3675 65.8029 47.4148C65.9724 47.5323 66.1556 47.6288 66.3484 47.7021C67.3448 48.1021 69.6139 48.4439 74.1484 47.5421C75.2866 47.3057 76.123 47.1494 76.9885 47.7894C77.1956 47.9613 77.3601 48.1787 77.4692 48.4247C77.5784 48.6708 77.6291 48.9387 77.6175 49.2076C77.5695 49.6137 77.4152 50 77.1703 50.3276C76.2975 51.604 74.5666 52.8149 72.3484 53.8112C70.3884 54.6985 67.5738 55.1603 65.0793 55.1894C63.8284 55.2003 62.6756 55.1058 61.6974 54.8112L61.632 54.7894C61.2538 58.3204 60.3847 65.2986 59.8211 68.4804C59.3665 71.0477 58.5738 73.0877 57.0574 74.615C55.5447 76.1423 53.4065 77.0623 50.5265 77.6623C46.9592 78.4041 44.3592 77.6041 42.6828 76.2332C41.01 74.8696 40.2428 73.055 39.7809 71.9423C39.4646 71.1786 39.3009 70.1859 39.1409 68.8586C38.965 67.2695 38.8474 65.6745 38.7882 64.0768C38.6838 61.2756 38.6499 58.4723 38.6864 55.6694C37.1955 56.9894 35.3409 57.8694 33.3518 58.2004C30.9882 58.5894 28.8718 58.2076 27.61 57.9022C26.9914 57.7497 26.3932 57.5238 25.8281 57.2294C25.239 56.9276 24.6827 56.5858 24.3118 55.9094C24.0932 55.5234 24.0234 55.0707 24.1154 54.6367C24.2345 54.1958 24.4983 53.8078 24.8645 53.5349C25.5481 52.9967 26.4463 52.6985 27.8027 52.4221C30.2754 51.9312 31.1373 51.593 31.6609 51.1894C32.1082 50.8439 32.6136 50.1458 33.5082 49.1167L33.4973 48.9821C31.903 48.9353 30.3402 48.5275 28.9263 47.7894C28.4136 48.313 25.7809 51.0149 22.5699 54.7603C21.2208 56.3276 19.7299 57.2258 18.1554 57.2913C16.5808 57.3567 15.159 56.5858 13.9517 55.4513C11.5335 53.1749 9.60622 49.2585 7.92621 44.833C6.25347 40.4039 4.88619 35.4729 3.91891 31.2729C2.94436 27.0729 2.36981 23.6874 2.28981 22.0547C1.92617 15.1128 3.59891 10.4364 6.47165 7.48732C9.3444 4.53821 13.279 3.4182 17.119 3.20729C24.0063 2.82184 30.5482 5.15276 31.8718 5.65458C34.4209 3.97457 37.7046 2.92729 41.8101 2.99275C43.756 3.01981 45.6928 3.26374 47.5846 3.72002L47.6537 3.69093C48.4877 3.40729 49.3337 3.16972 50.1919 2.9782C52.5282 2.45087 54.9134 2.17054 57.3083 2.14183L57.312 2.13456ZM57.832 4.3673H57.3338C55.3663 4.3938 53.4059 4.60811 51.4792 5.0073C55.3037 6.67306 58.664 9.24691 61.2684 12.5055C62.8461 14.455 64.1548 16.6076 65.1593 18.9056C65.5375 19.7856 65.792 20.531 65.9338 21.1056C66.0066 21.3965 66.0575 21.6401 66.072 21.8947C66.0855 22.0558 66.0719 22.218 66.032 22.3747L66.0102 22.4183C66.1157 25.3383 65.3702 27.3165 65.2793 30.102C65.2102 32.1238 65.7411 34.4984 65.872 37.0839C65.9957 39.5202 65.6938 42.193 64.0647 44.8185C64.2005 44.9785 64.3314 45.1385 64.4575 45.2985C68.7666 38.7166 71.8757 31.4293 73.5303 25.222C74.4139 21.8765 74.8866 18.8474 74.9266 16.4474C74.963 14.0474 74.5012 12.3055 73.9121 11.5819C69.3011 5.86185 63.0647 4.4073 57.832 4.3673ZM41.3773 5.21821C37.3155 5.22549 34.3991 6.41822 32.1918 8.20005C29.9118 10.0437 28.3845 12.5637 27.3809 15.1492C26.4094 17.733 25.8154 20.4433 25.6172 23.1965L25.6645 23.1711C26.89 22.502 28.5009 21.8365 30.2245 21.451C31.9518 21.0656 33.81 20.9456 35.4937 21.5783C37.1773 22.211 38.57 23.702 39.0755 25.9638C41.4937 36.822 38.3228 40.8584 37.1518 43.9021C36.7126 45.0067 36.3338 46.1345 36.0173 47.2803C36.1627 47.2391 36.3094 47.21 36.4573 47.193C37.0961 47.1585 37.7334 47.2834 38.3119 47.5567C39.49 48.0294 40.2973 49.0185 40.7337 50.153C40.8476 50.4536 40.9288 50.7688 40.9773 51.0985C41.0258 51.2367 41.0488 51.3785 41.0464 51.524C40.9157 55.6759 40.9303 59.8312 41.09 63.9822C41.1701 65.7786 41.2864 67.3568 41.4355 68.6041C41.581 69.8477 41.7919 70.7932 41.9264 71.1132C42.3628 72.1823 43.0064 73.5786 44.1701 74.5277C45.3337 75.4768 46.9955 76.1059 50.0392 75.4732C52.6792 74.9241 54.3083 74.1641 55.3992 73.0623C56.4829 71.9677 57.1338 70.4441 57.5483 68.1059C58.1702 64.604 59.4211 54.4549 59.5702 52.5421C59.5047 51.1058 59.7229 49.9967 60.1956 49.153C60.6865 48.2876 61.4429 47.7567 62.0938 47.4694C62.4211 47.3239 62.7265 47.2294 62.9775 47.1603C62.7101 46.7904 62.4311 46.429 62.1411 46.0766C61.2007 44.9766 60.4298 43.7424 59.8538 42.4148C59.5763 41.8687 59.2816 41.3314 58.9702 40.8039C58.5156 40.0039 57.9374 39.0039 57.3338 37.8802C56.1229 35.6293 54.8065 32.902 54.1229 30.2438C53.4429 27.5929 53.341 24.8474 55.0865 22.9092C56.6356 21.1892 59.3483 20.4765 63.4247 20.8765C63.3047 20.5274 63.232 20.2365 63.0284 19.771C62.1085 17.6583 60.906 15.6802 59.4538 13.891C55.9992 9.60733 50.4101 5.36003 41.7701 5.22185H41.3773V5.21821ZM18.5554 5.38912C18.119 5.38912 17.6826 5.40125 17.2463 5.42549C13.7772 5.61822 10.4971 6.5964 8.15166 9.01096C5.79892 11.4219 4.25346 15.3783 4.58801 21.931C4.6571 23.1674 5.21346 26.6438 6.1662 30.7675C7.11893 34.8984 8.47166 39.753 10.0935 44.0403C11.7153 48.3312 13.6862 52.0658 15.5553 53.8331C16.4972 54.7167 17.3154 55.0731 18.0572 55.044C18.8026 55.0076 19.6972 54.5931 20.7954 53.3167C22.7954 50.9763 24.8692 48.7 27.0136 46.4912C25.4984 45.2206 24.332 43.5849 23.6245 41.7384C22.9227 39.9095 22.7097 37.9293 23.0063 35.9929C23.359 33.5275 23.4063 31.222 23.3663 29.4038C23.3227 27.6293 23.1918 26.4511 23.1918 25.7129V25.6111C23.188 21.7679 23.8766 17.9555 25.2245 14.3565C26.1845 11.8764 27.6172 9.35642 29.7663 7.31641C27.6572 6.64368 23.9118 5.61822 19.8572 5.42549C19.4212 5.40214 18.9847 5.39002 18.5481 5.38912H18.5554ZM61.152 22.9965C58.8211 23.0256 57.512 23.6111 56.8247 24.3747C55.8501 25.4583 55.7592 27.3565 56.3629 29.6984C56.9665 32.0402 58.2065 34.662 59.3774 36.8366C59.9593 37.9275 60.5265 38.9093 60.9847 39.7021C61.4465 40.5021 61.7847 41.0693 61.9884 41.5566C62.1823 41.9954 62.3859 42.3966 62.5993 42.7603C63.5011 40.9093 63.6647 39.0948 63.5702 37.2002C63.4502 34.8584 62.8902 32.462 62.9738 30.0365C63.0647 27.2002 63.6429 25.3492 63.6938 23.1565C62.8504 23.0537 62.0017 23.0003 61.152 22.9965ZM32.8609 23.3783C32.1486 23.3837 31.4389 23.4666 30.7445 23.6256C29.364 23.9511 28.0316 24.4547 26.7809 25.1238C26.3615 25.342 25.9615 25.5953 25.5809 25.8838L25.5081 25.9492C25.53 26.4365 25.6281 27.6183 25.6718 29.3529C25.7081 31.2547 25.6645 33.6802 25.2863 36.2984C24.4645 42.0003 28.7263 46.7203 33.7373 46.7276C34.0282 45.5566 34.5118 44.3712 34.9918 43.1203C36.3882 39.473 39.1337 36.8148 36.8209 26.4329C36.4427 24.7347 35.6937 24.0474 34.6609 23.6583C34.0826 23.4575 33.4729 23.3627 32.8609 23.3783ZM60.0611 24.0583H60.2356C60.4635 24.0656 60.6696 24.0898 60.8538 24.1311C61.021 24.1647 61.1811 24.2275 61.3265 24.3165C61.3928 24.3555 61.45 24.4081 61.4945 24.4707C61.539 24.5334 61.5697 24.6048 61.5847 24.6802V24.7092C61.5943 24.8691 61.5508 25.0276 61.4611 25.1602C61.3596 25.3435 61.2322 25.5113 61.0829 25.6583C60.7305 26.0323 60.2658 26.2812 59.7593 26.3674C59.2627 26.4262 58.7616 26.3036 58.3483 26.022C58.182 25.9121 58.0315 25.78 57.9011 25.6292C57.7907 25.5115 57.7152 25.3655 57.6829 25.2074C57.675 25.1297 57.6839 25.0511 57.709 24.9771C57.734 24.903 57.7748 24.8353 57.8283 24.7783C57.9446 24.6563 58.0812 24.5554 58.232 24.4802C58.8079 24.2157 59.4312 24.0698 60.0647 24.0511L60.0611 24.0583ZM33.1955 24.6183C33.3773 24.6183 33.5676 24.6329 33.7664 24.662C34.29 24.7347 34.7591 24.8692 35.1155 25.0692C35.29 25.1589 35.4427 25.2765 35.5737 25.422C35.6415 25.502 35.6924 25.5905 35.7264 25.6874C35.7603 25.7844 35.7712 25.885 35.7591 25.9893C35.726 26.1821 35.6361 26.3606 35.5009 26.502C35.3602 26.6714 35.1947 26.8185 35.01 26.9383C34.5584 27.2459 34.0105 27.379 33.4682 27.3129C32.9179 27.2241 32.412 26.9571 32.0282 26.5529C31.8686 26.3901 31.7316 26.2067 31.6209 26.0074C31.5077 25.8331 31.4576 25.6251 31.4791 25.4183C31.53 25.0547 31.8391 24.8729 32.1336 24.7638C32.4741 24.6558 32.8316 24.6114 33.1882 24.6329L33.1955 24.6183ZM64.3229 49.0985H64.312C63.8066 49.2803 63.392 49.353 63.0393 49.4985C62.6879 49.6288 62.3967 49.8838 62.2211 50.2149C62.0029 50.5967 61.8211 51.2767 61.8756 52.433C62.0323 52.5364 62.204 52.6149 62.3847 52.6658C62.9702 52.8403 63.9556 52.9567 65.0575 52.9385C67.2466 52.9131 69.9448 52.4185 71.3775 51.7712C72.5521 51.2403 73.643 50.5494 74.6175 49.7203C69.8284 50.6803 67.1266 50.4258 65.4647 49.7603C65.0549 49.593 64.6705 49.3727 64.3229 49.0985ZM36.73 49.4076H36.6573C36.4755 49.4221 36.21 49.4803 35.7009 50.033C34.5009 51.3349 34.0864 52.1494 33.0973 52.9131C32.1155 53.6767 30.8318 54.0803 28.2718 54.5894C27.4609 54.7494 26.9991 54.9276 26.6863 55.0694C26.7881 55.1494 26.7772 55.1712 26.9263 55.2476C27.3009 55.4476 27.7845 55.6222 28.17 55.7203C29.2718 55.9858 31.0791 56.2985 32.9664 55.9858C34.8536 55.6731 36.8137 54.7967 38.4864 52.5203C38.7773 52.1276 38.8064 51.5458 38.57 50.9203C38.3264 50.3021 37.8028 49.7639 37.4318 49.6112C37.2106 49.5069 36.9733 49.4405 36.73 49.4148V49.4076Z" fill="#F8F9FA"/>
</svg>
