<svg width="512" height="512" viewBox="0 0 512 512" fill="none" xmlns="http://www.w3.org/2000/svg">
<path d="M265.332 375.47C265.824 376.259 266.743 377.047 266.747 377.838C266.826 397.151 266.809 416.465 266.809 436C203.435 436 140.312 436 77 436C77 332.815 77 229.73 77 126.063C78.1188 126.063 79.314 126.063 80.5091 126.063C181.561 126.062 282.613 126.076 383.664 126C386.904 125.998 388.003 126.787 388 130.211C387.913 231.065 387.93 331.919 387.93 432.773C387.93 433.765 387.93 434.757 387.93 435.986C366.971 435.986 346.238 435.986 325.252 435.986C325.252 353.818 325.252 271.714 325.252 189.307C262.636 189.307 200.271 189.307 137.374 189.307C137.374 250.782 137.374 312.396 137.48 374.646C138.969 375.626 140.352 376.269 141.736 376.27C181.496 376.324 221.257 376.323 261.018 376.278C262.456 376.277 263.894 375.751 265.332 375.47Z" fill="#ADB5BD"/>
<path d="M267 276.253C267 289.343 267 302.058 267 315C243.62 315 220.426 315 197 315C197 292.772 197 270.501 197 248C220.151 248 243.345 248 267 248C267 257.259 267 266.569 267 276.253Z" fill="#6C757D"/>
<path d="M407.146 131.674C407.146 122.3 407.146 113.303 407.146 103.985C389.715 103.985 372.471 103.985 355 103.985C355 94.851 355 86.0357 355 77C381.581 77 408.177 77 435 77C435 102.572 435 128.169 435 154C425.901 154 416.748 154 407.146 154C407.146 146.721 407.146 139.385 407.146 131.674Z" fill="#6C757D"/>
<path d="M265 375.549C263.744 376.269 262.302 376.955 260.86 376.957C220.991 377.015 181.122 377.017 141.254 376.947C139.866 376.944 138.48 376.106 137 375.283C177.906 374.946 218.905 374.983 259.904 375.03C261.54 375.032 263.177 375.138 265 375.549Z" fill="#6C757D"/>
</svg>
