<svg width="80" height="80" viewBox="0 0 80 80" fill="none" xmlns="http://www.w3.org/2000/svg">
<g clip-path="url(#clip0_185_730)">
<path d="M63.1983 27.3128C62.4321 27.0176 61.6594 26.7442 60.8808 26.4927C61.0116 25.8927 61.132 25.2999 61.2389 24.7176C62.9933 15.1552 61.8464 7.45152 57.9288 4.9151C54.1727 2.48352 48.03 5.019 41.8262 11.0812C41.2147 11.6797 40.6169 12.2955 40.0332 12.9279C39.6424 12.5074 39.2448 12.095 38.8404 11.691C32.3385 5.2091 25.8213 2.47721 21.908 5.02089C18.1553 7.46005 17.0441 14.7021 18.6236 23.7646C18.7807 24.6621 18.9582 25.555 19.1557 26.4425C18.2332 26.7368 17.3431 27.0501 16.4912 27.3835C8.86816 30.3677 4 35.0443 4 39.8951C4 44.9051 9.22619 49.9303 17.1659 52.9773C17.8096 53.2233 18.4586 53.4513 19.1124 53.661C18.9001 54.6168 18.7116 55.5791 18.5471 56.5467C17.0413 65.4519 18.2172 72.5228 21.9598 74.9465C25.8253 77.4494 32.3132 74.877 38.6303 68.6765C39.1426 68.1724 39.6435 67.654 40.1328 67.1218C40.7649 67.8067 41.4139 68.4715 42.079 69.1157C48.1984 75.0279 54.2419 77.4153 57.9809 74.985C61.8427 72.4748 63.0979 64.8788 61.4684 55.6372C61.34 54.9132 61.1961 54.1928 61.0367 53.4766C61.4923 53.325 61.9395 53.169 62.3754 53.0067C70.6295 49.9363 76 44.9721 76 39.8951C76 35.0266 70.9746 30.3185 63.1983 27.3128ZM61.4082 49.7288C61.0144 49.875 60.6106 50.0162 60.1988 50.1535C59.2876 46.9145 58.0579 43.4705 56.553 39.9118C57.989 36.4382 59.1714 33.0381 60.0571 29.8202C60.7937 30.0595 61.5083 30.3118 62.1974 30.5781C68.8602 33.1536 72.9242 36.9611 72.9242 39.8951C72.9242 43.0202 68.5351 47.0771 61.4082 49.7288ZM58.4511 56.3079C59.1717 60.3943 59.2743 64.089 58.7971 66.9775C58.3684 69.573 57.5061 71.3032 56.4396 71.9964C54.1708 73.4711 49.3184 71.5543 44.0852 66.4978C43.4665 65.8989 42.8628 65.2808 42.2747 64.6442C44.3037 62.1529 46.3312 59.2568 48.3101 56.0402C51.7908 55.6934 55.0792 55.1263 58.0613 54.3523C58.205 55.0006 58.3349 55.6527 58.4511 56.3079ZM28.5464 71.7415C26.3296 72.6204 24.5639 72.6456 23.4965 71.9547C21.2254 70.4841 20.2813 64.8065 21.5691 57.1909C21.7222 56.291 21.8975 55.396 22.0948 54.507C25.044 55.2396 28.3084 55.7664 31.7973 56.0841C33.7897 59.2315 35.8757 62.1245 37.9781 64.6577C37.5313 65.1431 37.074 65.6161 36.6064 66.0763C33.8128 68.8179 31.0135 70.7632 28.5464 71.7415ZM18.1609 49.7095C14.6501 48.3621 11.7507 46.611 9.76338 44.7002C7.97744 42.9832 7.07603 41.2783 7.07603 39.8951C7.07603 36.9513 10.9846 33.1966 17.5037 30.6447C18.2948 30.3352 19.1228 30.0431 19.982 29.769C20.8832 33.0595 22.065 36.5001 23.4912 39.9791C22.0464 43.5096 20.8477 47.0051 19.9379 50.3345C19.3411 50.1425 18.7486 49.9342 18.1609 49.7095ZM21.6423 23.1011C20.2892 15.3368 21.1877 9.47984 23.4493 8.00984C25.8579 6.44416 31.1842 8.67647 36.7982 14.2735C37.1643 14.6393 37.5245 15.0125 37.8785 15.393C35.7866 17.9152 33.7197 20.7867 31.745 23.9155C28.3588 24.2679 25.1174 24.8338 22.1372 25.5921C21.9536 24.7666 21.7886 23.9359 21.6423 23.1011ZM52.6998 31.7121C51.9959 30.3469 51.2659 28.9989 50.5103 27.669C52.8076 27.9952 55.0086 28.4282 57.0755 28.9574C56.4551 31.1907 55.6817 33.5253 54.7713 35.919C54.1058 34.5013 53.4152 33.0987 52.6998 31.7121ZM40.0346 17.8612C41.4532 19.587 42.8741 21.5136 44.2716 23.6042C41.4366 23.4538 38.5969 23.4532 35.7618 23.6023C37.1608 21.531 38.5938 19.6069 40.0346 17.8612ZM27.2881 31.7357C26.5817 33.1113 25.9039 34.5051 25.2555 35.9162C24.36 33.531 23.5936 31.1856 22.9678 28.9208C25.022 28.4048 27.2127 27.9829 29.4953 27.6627C28.7313 29.0007 27.9953 30.3589 27.2881 31.7357ZM29.5608 52.3732C27.2026 52.0776 24.979 51.6775 22.9253 51.1754C23.5609 48.8702 24.3442 46.4749 25.2591 44.0386C25.9102 45.4507 26.5907 46.8454 27.3002 48.2215C28.0297 49.6363 28.7852 51.022 29.5608 52.3732ZM40.1195 62.1722C38.6615 60.4063 37.2075 58.4525 35.7874 56.3512C37.1661 56.4118 38.5715 56.4428 40 56.4428C41.4676 56.4428 42.9183 56.4058 44.3462 56.3345C42.9441 58.4736 41.5286 60.4303 40.1195 62.1722ZM54.8002 43.9142C55.7627 46.3773 56.5738 48.7599 57.2178 51.0257C55.1304 51.5607 52.8765 51.9914 50.5016 52.3113C51.2626 50.9567 51.9995 49.5853 52.7119 48.1978C53.4363 46.7875 54.1325 45.3593 54.8002 43.9142ZM50.0477 46.4724C48.957 48.5996 47.8051 50.6865 46.5936 52.7297C44.3992 52.9042 42.1999 52.9909 40 52.9896C37.7593 52.9896 35.5799 52.9113 33.4812 52.7585C32.2381 50.72 31.0642 48.6295 29.9619 46.4913C28.8648 44.3645 27.8403 42.1917 26.8901 39.9775C27.8379 37.7629 28.8596 35.589 29.9529 33.4606L29.9526 33.4609C31.0456 31.3319 32.2101 29.2503 33.4438 27.2206C35.5849 27.0387 37.7807 26.9439 39.9997 26.9439C42.2289 26.9439 44.4277 27.0396 46.5683 27.2228C47.7895 29.2495 48.9466 31.3239 50.0375 33.4423C51.1345 35.566 52.1697 37.7293 53.1414 39.9286C52.1797 42.1504 51.1478 44.333 50.0477 46.4724ZM56.3927 7.90689C58.8035 9.46816 59.7412 15.764 58.2264 24.0204C58.1297 24.5471 58.0211 25.0836 57.903 25.6277C54.9155 24.8534 51.6719 24.2777 48.2758 23.9199C46.2975 20.7567 44.2474 17.8808 42.1895 15.3911C42.7289 14.8074 43.281 14.2388 43.8455 13.6858C49.1612 8.49205 54.1292 6.44131 56.3927 7.90689ZM40 32.6762C43.5508 32.6762 46.4294 35.9083 46.4294 39.8951C46.4294 43.8819 43.5508 47.1141 40 47.1141C36.4492 47.1141 33.5706 43.8819 33.5706 39.8951C33.5706 35.9083 36.4492 32.6762 40 32.6762Z" fill="#F8F9FA"/>
</g>
<defs>
<clipPath id="clip0_185_730">
<rect width="72" height="72" fill="white" transform="translate(4 4)"/>
</clipPath>
</defs>
</svg>
