<svg width="65" height="64" viewBox="0 0 65 64" fill="none" xmlns="http://www.w3.org/2000/svg">
<g clip-path="url(#clip0_316_403)">
<path d="M63.5418 28.5493L50.9284 6.72267C49.8351 4.82934 47.1498 3.272 44.9551 3.272H19.7551C17.5684 3.272 14.8724 4.82934 13.7818 6.72267L1.17645 28.5493C0.083112 30.4427 0.083112 33.544 1.17645 35.44L13.7764 57.2773C14.8698 59.1707 17.5551 60.728 19.7498 60.728H44.9631C47.1498 60.728 49.8324 59.1707 50.9364 57.2773L63.5391 35.4373C64.6324 33.544 64.6324 30.4427 63.5391 28.5493H63.5418ZM29.6298 15.3467C29.6298 13.9147 30.7978 12.7467 32.2271 12.7467C33.6564 12.7467 34.8271 13.9147 34.8271 15.3467V30.8693C34.7848 31.5294 34.4927 32.1486 34.0103 32.6011C33.5279 33.0536 32.8912 33.3055 32.2298 33.3055C31.5683 33.3055 30.9317 33.0536 30.4493 32.6011C29.9668 32.1486 29.6748 31.5294 29.6324 30.8693L29.6298 15.3467ZM32.2271 48.4933C27.5554 48.487 23.0769 46.628 19.774 43.324C16.471 40.0201 14.6134 35.5411 14.6084 30.8693C14.6148 28.1215 15.2607 25.4129 16.4951 22.9579C17.7295 20.503 19.5185 18.3691 21.7204 16.7253C21.9643 16.5437 22.2416 16.4119 22.5365 16.3377C22.8314 16.2635 23.138 16.2483 23.4388 16.2929C23.7396 16.3375 24.0286 16.441 24.2893 16.5976C24.55 16.7542 24.7771 16.9607 24.9578 17.2053C25.1393 17.4488 25.2711 17.7256 25.3455 18.02C25.4199 18.3145 25.4355 18.6207 25.3914 18.9211C25.3473 19.2216 25.2444 19.5104 25.0885 19.771C24.9327 20.0316 24.7269 20.259 24.4831 20.44C21.8117 22.53 20.0627 25.5812 19.6092 28.9426C19.1558 32.304 20.0337 35.7095 22.0559 38.4327C24.078 41.1559 27.0842 42.9811 30.4331 43.519C33.782 44.0569 37.2086 43.2649 39.9818 41.312C41.6105 40.1015 42.9331 38.5266 43.844 36.7133C44.7548 34.8999 45.2285 32.8986 45.2271 30.8693C45.2218 28.8326 44.7401 26.8253 43.8205 25.0079C42.9009 23.1905 41.569 21.6134 39.9311 20.4027C39.4382 20.0373 39.1101 19.4915 39.0187 18.8848C38.9272 18.278 39.0798 17.6598 39.4431 17.1653C39.8085 16.6724 40.3543 16.3444 40.961 16.2529C41.5677 16.1614 42.186 16.3141 42.6805 16.6773C44.8998 18.3194 46.7038 20.4582 47.948 22.9227C49.1923 25.3871 49.8422 28.1086 49.8458 30.8693C49.8422 35.5417 47.9846 40.0217 44.6807 43.3256C41.3768 46.6295 36.8968 48.4871 32.2245 48.4907" fill="#F8F9FA"/>
</g>
<defs>
<clipPath id="clip0_316_403">
<rect width="64" height="64" fill="white" transform="translate(0.360352)"/>
</clipPath>
</defs>
</svg>
