<svg width="80" height="80" viewBox="0 0 80 80" fill="none" xmlns="http://www.w3.org/2000/svg">
<path d="M80 22.195V19.8716C80 18.0658 79.872 16.3884 79.484 14.5827C79.356 12.7769 78.584 11.0995 77.812 9.67897C76.14 6.58106 73.696 3.87239 70.352 2.19502C68.68 1.42055 67.14 0.774478 65.336 0.517656C63.536 0.389245 61.864 0 60.064 0H18.78C17.364 0 16.204 0.12841 14.792 0.389245C13.4638 0.55144 12.1647 0.898545 10.932 1.42054C10.548 1.54896 10.032 1.80578 9.648 1.9382C8.52572 2.68543 7.45158 3.503 6.432 4.38603C6.044 4.51846 5.788 4.9077 5.272 5.29294C4.06435 6.52312 3.02705 7.91062 2.188 9.41814C1.416 11.0995 0.772 12.6445 0.516 14.4543C0.256 16.26 0.128 17.9374 0 19.7432V60C0 61.8058 0.128 63.4831 0.516 65.2889C0.644 67.0947 1.416 68.7761 2.188 70.321C3.86 73.5473 6.304 76.1276 9.648 77.805C11.32 78.5794 12.86 79.2255 14.664 79.4823C16.464 79.6148 18.136 80 19.936 80H60.068C61.868 80 63.536 79.8716 65.336 79.4823C67.136 79.3539 68.812 78.5794 70.352 77.805C73.44 76.1276 76.14 73.6758 77.812 70.321C78.584 68.6437 79.228 67.0987 79.484 65.2889C79.744 63.4831 80 61.8058 80 60V22.195ZM67.524 65.1605C63.924 58.3226 57.364 59.8716 54.02 61.6774C53.7548 61.9047 53.4495 62.0802 53.12 62.195H52.86C46.044 66.0634 36.4 66.1918 27.008 62.0666C19.3511 58.638 12.8667 53.0286 8.36 45.935C10.5193 47.6307 12.9001 49.0214 15.436 50.0682C25.596 54.8395 35.5 54.4502 42.7 50.0682C32.54 42.3234 24.308 32.1308 17.62 24.0008C16.3574 22.5805 15.1972 21.0719 14.148 19.4864C21.868 26.5811 34.212 35.614 38.588 37.9374C29.196 28.13 21.092 15.7464 21.348 16.3884C36.012 31.2279 49.516 39.7432 49.516 39.7432C50.032 39.8716 50.42 40.2568 50.804 40.5177C50.932 39.7432 51.32 39.0971 51.576 38.3226C53.892 29.8074 51.448 19.8716 45.404 11.87C59.164 20 67.14 35.614 63.796 48.9045C63.664 49.0329 63.664 49.4181 63.664 49.8074C70.224 57.6766 68.424 66.7095 67.524 65.1605Z" fill="#F8F9FA"/>
</svg>
