<svg width="80" height="80" viewBox="0 0 80 80" fill="none" xmlns="http://www.w3.org/2000/svg">
<g clip-path="url(#clip0_185_561)">
<path d="M16.752 30.4375H72.8163V71.8769H16.752V30.4375Z" fill="#0E1F19"/>
<path d="M4 40V76H76V4H4V40ZM62.0205 37.12C63.745 37.5202 65.3123 38.4221 66.5248 39.712C67.1923 40.4069 67.7726 41.1806 68.2528 42.016C68.2528 42.1082 65.1424 44.2106 63.2474 45.3856C63.1782 45.4317 62.9018 45.1322 62.5965 44.6771C62.2505 44.0802 61.759 43.5806 61.1677 43.2251C60.5765 42.8695 59.9048 42.6696 59.2154 42.6438C57.0323 42.4941 55.6269 43.6403 55.6384 45.5238C55.6203 45.9928 55.7277 46.4581 55.9494 46.8717C56.4275 47.8682 57.3203 48.4614 60.1197 49.671C65.2749 51.8886 67.481 53.3517 68.8518 55.431C70.384 57.735 70.7238 61.456 69.687 64.2093C68.535 67.2045 65.7126 69.2378 61.721 69.9117C59.8978 70.1205 58.0558 70.1011 56.2374 69.8541C53.4505 69.3947 50.8834 68.0566 48.9107 66.0352C48.2483 65.3037 46.9581 63.3971 47.0387 63.2589C47.249 63.1028 47.4704 62.9622 47.7011 62.8384L50.368 61.3638L52.4358 60.1658L52.8678 60.8051C53.5969 61.848 54.5247 62.7367 55.5981 63.4202C57.9021 64.6298 61.047 64.4627 62.6022 63.063C63.1244 62.5501 63.4501 61.8704 63.5228 61.142C63.5954 60.4137 63.4103 59.683 62.9997 59.0771C62.4237 58.2765 61.2717 57.6026 58.0518 56.1971C54.3366 54.5958 52.7354 53.6051 51.2723 52.0269C50.359 50.9854 49.6846 49.7567 49.2966 48.4269C49.0072 46.9076 48.9644 45.3517 49.1699 43.8189C49.936 40.2304 52.6259 37.7248 56.5542 36.9818C58.3735 36.7567 60.2163 36.8071 62.0205 37.1315V37.12ZM45.1206 40.1382V43.0874H35.7722V69.7158H29.1424V43.0816H19.7709V40.2016C19.7417 39.2084 19.7648 38.2144 19.84 37.2237C19.8861 37.1718 25.6 37.1718 32.512 37.1718H45.0861L45.1206 40.1382Z" fill="#F8F9FA"/>
</g>
<defs>
<clipPath id="clip0_185_561">
<rect width="72" height="72" fill="white" transform="translate(4 4)"/>
</clipPath>
</defs>
</svg>
